<?xml version="1.0" encoding="UTF-8" standalone="no"?>
<!-- Created with Inkscape (http://www.inkscape.org/) -->

<svg
   xmlns:dc="http://purl.org/dc/elements/1.1/"
   xmlns:cc="http://creativecommons.org/ns#"
   xmlns:rdf="http://www.w3.org/1999/02/22-rdf-syntax-ns#"
   xmlns:svg="http://www.w3.org/2000/svg"
   xmlns="http://www.w3.org/2000/svg"
   xmlns:sodipodi="http://sodipodi.sourceforge.net/DTD/sodipodi-0.dtd"
   xmlns:inkscape="http://www.inkscape.org/namespaces/inkscape"
   width="423.33334mm"
   height="423.33334mm"
   viewBox="0 0 1500.0001 1500"
   id="svg2"
   version="1.1"
   inkscape:version="0.91 r13725"
   sodipodi:docname="Spinner4.svg"
   inkscape:export-filename="/home/anna/Desktop/99/starter kit/Spinner3.png"
   inkscape:export-xdpi="90"
   inkscape:export-ydpi="90">
  <defs
     id="defs4" />
  <sodipodi:namedview
     id="base"
     pagecolor="#ffffff"
     bordercolor="#666666"
     borderopacity="1.0"
     inkscape:pageopacity="0.0"
     inkscape:pageshadow="2"
     inkscape:zoom="0.23267981"
     inkscape:cx="807.89251"
     inkscape:cy="634.53729"
     inkscape:document-units="px"
     inkscape:current-layer="g4681"
     showgrid="false"
     inkscape:window-width="1839"
     inkscape:window-height="1050"
     inkscape:window-x="81"
     inkscape:window-y="30"
     inkscape:window-maximized="1"
     showguides="true"
     fit-margin-top="0"
     fit-margin-left="0"
     fit-margin-right="0"
     fit-margin-bottom="0"
     inkscape:guide-bbox="true" />
  <metadata
     id="metadata7">
    <rdf:RDF>
      <cc:Work
         rdf:about="">
        <dc:format>image/svg+xml</dc:format>
        <dc:type
           rdf:resource="http://purl.org/dc/dcmitype/StillImage" />
        <dc:title />
      </cc:Work>
    </rdf:RDF>
  </metadata>
  <g
     inkscape:label="Layer 1"
     inkscape:groupmode="layer"
     id="layer1"
     transform="translate(1693.528,1513.8401)">
    <g
       id="g4681"
       transform="matrix(0.93333328,0,0,0.93333328,-365.75022,-12.816274)"
       style="fill:#666666"
       inkscape:export-xdpi="90"
       inkscape:export-ydpi="90">
      <path
         style="opacity:1;fill:#aad400;fill-opacity:1;fill-rule:nonzero;stroke:none;stroke-width:59.49100113;stroke-linecap:round;stroke-linejoin:round;stroke-miterlimit:4;stroke-dasharray:none;stroke-dashoffset:0;stroke-opacity:1"
         d="m -618.06474,-1539.3762 c -173.0031,-0.1713 -294.53073,153.4462 -295.77931,334.8775 -0.71757,104.2611 65.2664,217.75952 69.8927,316.30676 l 204.4336,-119.87216 a 35.8153,35.8153 0 0 1 35.8103,-0.242 l 209.95151,119.3387 c 4.80668,-99.61338 71.35989,-214.1918 70.78247,-319.2563 -0.98606,-179.4476 -123.53688,-330.9826 -295.09127,-331.1525 z m -3.05926,603.55367 -242.80789,142.37401 1.89832,281.46236 244.69727,139.08838 242.81008,-142.37178 -1.89833,-281.46236 -244.69945,-139.09061 z m 316.76392,204.14673 1.59354,236.59971 a 35.8153,35.8153 0 0 1 -17.69676,31.13289 l -206.91463,121.32887 c 87.1246,54.85 155.76099,173.39429 249.42398,226.54104 151.84086,86.158513 340.64344,50.032753 424.80241,-95.40237 84.4688,-145.97045 20.82831,-327.55264 -130.307288,-416.6442 -92.900469,-54.7631 -230.278472,-54.9111 -320.901252,-103.55594 z m -630.77785,0.0964 c -89.79637,46.59982 -224.00267,46.3434 -315.80017,100.14927 -152.3535,89.29999 -219.2629,271.57887 -134.6664,418.43943 84.3363,146.409023 272.7733,182.128673 425.85791,95.54363 93.47562,-52.87008 162.5172,-171.38822 249.68391,-225.77462 l -205.34129,-116.71417 a 35.8153,35.8153 0 0 1 -18.11353,-30.89309 l -1.62043,-240.75045 z"
         id="path4220"
         inkscape:connector-curvature="0" />
    </g>
  </g>
</svg>
